<svg width="30" height="30" viewBox="0 0 30 30" fill="none" xmlns="http://www.w3.org/2000/svg">
<g clip-path="url(#clip0_55_206)">
<path d="M0 4.00272C0 3.03745 0.337847 2.24112 1.01351 1.61373C1.68918 0.986304 2.56758 0.672607 3.64865 0.672607C4.71043 0.672607 5.56949 0.981468 6.22587 1.59925C6.90153 2.23631 7.23938 3.06641 7.23938 4.0896C7.23938 5.01624 6.91121 5.78842 6.25483 6.4062C5.57916 7.04326 4.69112 7.3618 3.59073 7.3618H3.56178C2.49999 7.3618 1.64094 7.04326 0.984556 6.4062C0.328176 5.76913 0 4.96796 0 4.00272ZM0.376448 29.3406V9.99693H6.80502V29.3406H0.376448ZM10.3668 29.3406H16.7954V18.5394C16.7954 17.8637 16.8726 17.3425 17.027 16.9757C17.2973 16.3193 17.7075 15.7643 18.2577 15.3106C18.8079 14.857 19.4981 14.6301 20.3282 14.6301C22.4904 14.6301 23.5714 16.0877 23.5714 19.0027V29.3406H30V18.2498C30 15.3927 29.3243 13.2257 27.973 11.7489C26.6216 10.272 24.8359 9.53361 22.6158 9.53361C20.1255 9.53361 18.1853 10.605 16.7954 12.7479V12.8058H16.7664L16.7954 12.7479V9.99693H10.3668C10.4054 10.6147 10.4247 12.5355 10.4247 15.7595C10.4247 18.9834 10.4054 23.5104 10.3668 29.3406Z" fill="black"/>
</g>
<defs>
<clipPath id="clip0_55_206">
<rect width="30" height="30" fill="white"/>
</clipPath>
</defs>
</svg>
