<svg width="140" height="30" viewBox="0 0 140 30" fill="none" xmlns="http://www.w3.org/2000/svg">
<path d="M0 28.8V7.85455H3.10909V11.0182H3.32727C3.70909 9.98182 4.4 9.14091 5.4 8.49545C6.4 7.85 7.52727 7.52727 8.78182 7.52727C9.01818 7.52727 9.31364 7.53182 9.66818 7.54091C10.0227 7.55 10.2909 7.56364 10.4727 7.58182V10.8545C10.3636 10.8273 10.1136 10.7864 9.72273 10.7318C9.34091 10.6682 8.93636 10.6364 8.50909 10.6364C7.49091 10.6364 6.58182 10.85 5.78182 11.2773C4.99091 11.6955 4.36364 12.2773 3.9 13.0227C3.44545 13.7591 3.21818 14.6 3.21818 15.5455V28.8H0Z" fill="black"/>
<path d="M12.6308 28.8V26.4614L19.8659 18.9652C20.6385 18.1509 21.2754 17.4374 21.7765 16.8249C22.2846 16.2055 22.664 15.6173 22.9145 15.0605C23.1651 14.5037 23.2904 13.9121 23.2904 13.2857C23.2904 12.5757 23.1233 11.9632 22.7892 11.4482C22.4552 10.9261 21.9993 10.5259 21.4216 10.2475C20.8439 9.96214 20.1931 9.81946 19.4692 9.81946C18.7036 9.81946 18.0354 9.97606 17.4647 10.2893C16.8939 10.6025 16.4554 11.0445 16.1492 11.6152C15.8429 12.1859 15.6898 12.8541 15.6898 13.6197H12.6099C12.6099 12.3182 12.9092 11.1802 13.5078 10.2058C14.1064 9.23132 14.9277 8.47614 15.9717 7.9402C17.0157 7.3973 18.2025 7.12585 19.5319 7.12585C20.8752 7.12585 22.0584 7.39382 23.0816 7.92976C24.1117 8.45873 24.9156 9.1826 25.4933 10.1013C26.071 11.0131 26.3598 12.0433 26.3598 13.1917C26.3598 13.9852 26.2102 14.7612 25.9109 15.5199C25.6186 16.2786 25.107 17.1242 24.3762 18.0569C23.6454 18.9826 22.6292 20.1067 21.3276 21.4291L17.0784 25.8767V26.0333H26.7044V28.8H12.6308Z" fill="black"/>
<path d="M32.7194 29.0182C32.0467 29.0182 31.4694 28.7773 30.9876 28.2955C30.5058 27.8136 30.2649 27.2364 30.2649 26.5636C30.2649 25.8909 30.5058 25.3136 30.9876 24.8318C31.4694 24.35 32.0467 24.1091 32.7194 24.1091C33.3922 24.1091 33.9694 24.35 34.4512 24.8318C34.9331 25.3136 35.174 25.8909 35.174 26.5636C35.174 27.0091 35.0603 27.4182 34.8331 27.7909C34.6149 28.1636 34.3194 28.4636 33.9467 28.6909C33.5831 28.9091 33.174 29.0182 32.7194 29.0182Z" fill="black"/>
<path d="M54.2493 12.5455L51.3584 13.3636C51.1766 12.8818 50.9084 12.4136 50.5539 11.9591C50.2084 11.4955 49.7357 11.1136 49.1357 10.8136C48.5357 10.5136 47.7675 10.3636 46.8312 10.3636C45.5493 10.3636 44.4812 10.6591 43.6266 11.25C42.7812 11.8318 42.3584 12.5727 42.3584 13.4727C42.3584 14.2727 42.6493 14.9045 43.2312 15.3682C43.813 15.8318 44.7221 16.2182 45.9584 16.5273L49.0675 17.2909C50.9402 17.7455 52.3357 18.4409 53.2539 19.3773C54.1721 20.3045 54.6312 21.5 54.6312 22.9636C54.6312 24.1636 54.2857 25.2364 53.5948 26.1818C52.913 27.1273 51.9584 27.8727 50.7312 28.4182C49.5039 28.9636 48.0766 29.2364 46.4493 29.2364C44.313 29.2364 42.5448 28.7727 41.1448 27.8455C39.7448 26.9182 38.8584 25.5636 38.4857 23.7818L41.5402 23.0182C41.8312 24.1455 42.3812 24.9909 43.1902 25.5545C44.0084 26.1182 45.0766 26.4 46.3948 26.4C47.8948 26.4 49.0857 26.0818 49.9675 25.4455C50.8584 24.8 51.3039 24.0273 51.3039 23.1273C51.3039 22.4 51.0493 21.7909 50.5402 21.3C50.0312 20.8 49.2493 20.4273 48.1948 20.1818L44.7039 19.3636C42.7857 18.9091 41.3766 18.2045 40.4766 17.25C39.5857 16.2864 39.1402 15.0818 39.1402 13.6364C39.1402 12.4545 39.4721 11.4091 40.1357 10.5C40.8084 9.59091 41.7221 8.87727 42.8766 8.35909C44.0402 7.84091 45.3584 7.58182 46.8312 7.58182C48.9039 7.58182 50.5312 8.03636 51.713 8.94545C52.9039 9.85455 53.7493 11.0545 54.2493 12.5455Z" fill="black"/>
<path d="M67.0486 7.85455V10.5818H56.194V7.85455H67.0486ZM59.3577 2.83636H62.5758V22.8C62.5758 23.7091 62.7077 24.3909 62.9713 24.8455C63.244 25.2909 63.5895 25.5909 64.0077 25.7455C64.4349 25.8909 64.8849 25.9636 65.3577 25.9636C65.7122 25.9636 66.0031 25.9455 66.2304 25.9091C66.4577 25.8636 66.6395 25.8273 66.7758 25.8L67.4304 28.6909C67.2122 28.7727 66.9077 28.8545 66.5167 28.9364C66.1258 29.0273 65.6304 29.0727 65.0304 29.0727C64.1213 29.0727 63.2304 28.8773 62.3577 28.4864C61.494 28.0955 60.7758 27.5 60.2031 26.7C59.6395 25.9 59.3577 24.8909 59.3577 23.6727V2.83636Z" fill="black"/>
<path d="M83.5535 20.2364V7.85455H86.7717V28.8H83.5535V25.2545H83.3353C82.8444 26.3182 82.0807 27.2227 81.0444 27.9682C80.008 28.7045 78.6989 29.0727 77.1171 29.0727C75.808 29.0727 74.6444 28.7864 73.6262 28.2136C72.608 27.6318 71.808 26.7591 71.2262 25.5955C70.6444 24.4227 70.3535 22.9455 70.3535 21.1636V7.85455H73.5717V20.9455C73.5717 22.4727 73.9989 23.6909 74.8535 24.6C75.7171 25.5091 76.8171 25.9636 78.1535 25.9636C78.9535 25.9636 79.7671 25.7591 80.5944 25.35C81.4307 24.9409 82.1307 24.3136 82.6944 23.4682C83.2671 22.6227 83.5535 21.5455 83.5535 20.2364Z" fill="black"/>
<path d="M99.0391 29.2364C97.2936 29.2364 95.7527 28.7955 94.4163 27.9136C93.08 27.0227 92.0345 25.7682 91.28 24.15C90.5254 22.5227 90.1482 20.6 90.1482 18.3818C90.1482 16.1818 90.5254 14.2727 91.28 12.6545C92.0345 11.0364 93.0845 9.78636 94.43 8.90454C95.7754 8.02273 97.33 7.58182 99.0936 7.58182C100.457 7.58182 101.535 7.80909 102.325 8.26364C103.125 8.70909 103.735 9.21818 104.153 9.79091C104.58 10.3545 104.912 10.8182 105.148 11.1818H105.421V0.872727H108.639V28.8H105.53V25.5818H105.148C104.912 25.9636 104.575 26.4455 104.139 27.0273C103.703 27.6 103.08 28.1136 102.271 28.5682C101.462 29.0136 100.385 29.2364 99.0391 29.2364ZM99.4754 26.3455C100.766 26.3455 101.857 26.0091 102.748 25.3364C103.639 24.6545 104.316 23.7136 104.78 22.5136C105.244 21.3045 105.475 19.9091 105.475 18.3273C105.475 16.7636 105.248 15.3955 104.794 14.2227C104.339 13.0409 103.666 12.1227 102.775 11.4682C101.885 10.8045 100.785 10.4727 99.4754 10.4727C98.1118 10.4727 96.9754 10.8227 96.0663 11.5227C95.1663 12.2136 94.4891 13.1545 94.0345 14.3455C93.5891 15.5273 93.3663 16.8545 93.3663 18.3273C93.3663 19.8182 93.5936 21.1727 94.0482 22.3909C94.5118 23.6 95.1936 24.5636 96.0936 25.2818C97.0027 25.9909 98.13 26.3455 99.4754 26.3455Z" fill="black"/>
<path d="M113.444 28.8V7.85455H116.662V28.8H113.444ZM115.08 4.36364C114.453 4.36364 113.912 4.15 113.458 3.72273C113.012 3.29545 112.789 2.78182 112.789 2.18182C112.789 1.58182 113.012 1.06818 113.458 0.640908C113.912 0.213636 114.453 0 115.08 0C115.708 0 116.244 0.213636 116.689 0.640908C117.144 1.06818 117.371 1.58182 117.371 2.18182C117.371 2.78182 117.144 3.29545 116.689 3.72273C116.244 4.15 115.708 4.36364 115.08 4.36364Z" fill="black"/>
<path d="M129.53 29.2364C127.639 29.2364 125.98 28.7864 124.552 27.8864C123.134 26.9864 122.025 25.7273 121.225 24.1091C120.434 22.4909 120.039 20.6 120.039 18.4364C120.039 16.2545 120.434 14.35 121.225 12.7227C122.025 11.0955 123.134 9.83182 124.552 8.93182C125.98 8.03182 127.639 7.58182 129.53 7.58182C131.42 7.58182 133.075 8.03182 134.493 8.93182C135.92 9.83182 137.03 11.0955 137.82 12.7227C138.62 14.35 139.02 16.2545 139.02 18.4364C139.02 20.6 138.62 22.4909 137.82 24.1091C137.03 25.7273 135.92 26.9864 134.493 27.8864C133.075 28.7864 131.42 29.2364 129.53 29.2364ZM129.53 26.3455C130.966 26.3455 132.148 25.9773 133.075 25.2409C134.002 24.5045 134.689 23.5364 135.134 22.3364C135.58 21.1364 135.802 19.8364 135.802 18.4364C135.802 17.0364 135.58 15.7318 135.134 14.5227C134.689 13.3136 134.002 12.3364 133.075 11.5909C132.148 10.8455 130.966 10.4727 129.53 10.4727C128.093 10.4727 126.911 10.8455 125.984 11.5909C125.057 12.3364 124.37 13.3136 123.925 14.5227C123.48 15.7318 123.257 17.0364 123.257 18.4364C123.257 19.8364 123.48 21.1364 123.925 22.3364C124.37 23.5364 125.057 24.5045 125.984 25.2409C126.911 25.9773 128.093 26.3455 129.53 26.3455Z" fill="black"/>
</svg>
